<svg width="47" height="35" viewBox="0 0 47 35" fill="none" xmlns="http://www.w3.org/2000/svg">
<path d="M1.19209e-06 33.504V2.76566e-05H22.224V6.48003H7.296V13.344H20.016V19.776H7.296V33.504H1.19209e-06ZM34.7393 34.08C32.8193 34.08 31.1073 33.776 29.6033 33.168C28.0993 32.528 26.8193 31.648 25.7633 30.528C24.7393 29.376 23.9553 27.984 23.4113 26.352C22.8993 24.72 22.6433 22.896 22.6433 20.88C22.6433 18.896 22.8993 17.104 23.4113 15.504C23.9233 13.872 24.6753 12.48 25.6673 11.328C26.6913 10.176 27.9393 9.29603 29.4113 8.68803C30.8833 8.04803 32.5633 7.72803 34.4513 7.72803C36.5313 7.72803 38.3073 8.08003 39.7793 8.78403C41.2833 9.48803 42.4993 10.432 43.4273 11.616C44.3873 12.8 45.0753 14.176 45.4913 15.744C45.9393 17.28 46.1633 18.896 46.1633 20.592V22.704H29.9873V23.088C29.9873 24.752 30.4353 26.08 31.3313 27.072C32.2273 28.032 33.6353 28.512 35.5553 28.512C37.0273 28.512 38.2273 28.224 39.1553 27.648C40.0833 27.04 40.9473 26.32 41.7473 25.488L45.2993 29.904C44.1793 31.216 42.7073 32.24 40.8833 32.976C39.0913 33.712 37.0433 34.08 34.7393 34.08ZM34.5953 12.96C33.1553 12.96 32.0193 13.44 31.1873 14.4C30.3873 15.328 29.9873 16.576 29.9873 18.144V18.528H38.8193V18.096C38.8193 16.56 38.4673 15.328 37.7633 14.4C37.0913 13.44 36.0353 12.96 34.5953 12.96Z" fill="#4076B9"/>
</svg>
